<?xml version="1.0" standalone="no"?>
<!DOCTYPE svg PUBLIC "-//W3C//DTD SVG 20010904//EN"
 "http://www.w3.org/TR/2001/REC-SVG-20010904/DTD/svg10.dtd">
<svg version="1.0" xmlns="http://www.w3.org/2000/svg"
 width="253.000000pt" height="230.000000pt" viewBox="0 0 253.000000 230.000000"
 preserveAspectRatio="xMidYMid meet">
<metadata>
Created by potrace 1.10, written by Peter Selinger 2001-2011
</metadata>
<g transform="translate(0.000000,230.000000) scale(0.100000,-0.100000)"
fill="#000000" stroke="none">
<path d="M463 1960 c-48 -25 -59 -37 -82 -81 -21 -39 -21 -52 -21 -754 l0
-715 320 0 320 0 0 40 0 40 -282 0 -283 0 2 495 2 495 773 0 773 0 1 -181 c2
-193 1 -188 52 -204 l23 -7 -3 319 -3 318 -29 38 c-56 73 -48 72 -456 75 -228
1 -366 6 -368 12 -2 6 -9 10 -15 10 -16 0 -221 102 -225 112 -2 4 -108 7 -235
7 -200 -1 -236 -4 -264 -19z m493 -71 c11 -9 30 -20 44 -24 14 -4 27 -11 30
-14 3 -4 40 -24 83 -45 l79 -37 347 1 c328 0 349 -1 388 -20 48 -23 63 -58 63
-147 l0 -53 -777 0 -778 0 2 127 c2 71 3 138 3 151 0 26 40 64 78 74 15 3 115
5 223 5 166 -2 200 -5 215 -18z"/>
<path d="M1416 1057 l-48 -73 -70 0 c-80 -1 -112 -19 -140 -76 -15 -31 -18
-77 -20 -332 l-3 -296 463 0 463 0 -3 316 -3 316 -36 32 c-38 35 -104 53 -152
41 -15 -4 -29 -1 -36 7 -20 23 -61 89 -61 97 0 4 -8 15 -18 24 -15 14 -42 17
-153 17 l-135 0 -48 -73z m309 -37 l23 -36 -144 1 c-101 0 -144 3 -144 11 0 7
7 14 15 18 8 3 15 12 15 20 0 22 17 25 119 23 l94 -2 22 -35z m215 -110 c0 -5
7 -10 15 -10 30 0 35 -50 33 -301 l-3 -249 -388 -3 -387 -2 0 260 c0 143 4
265 8 270 4 6 18 18 32 27 22 15 63 17 358 17 215 1 332 -3 332 -9z"/>
<path d="M1524 791 c-96 -53 -131 -159 -79 -240 73 -116 202 -131 292 -35 47
51 54 167 13 215 -11 12 -20 25 -20 29 0 3 -20 16 -45 28 -54 26 -118 28 -161
3z m145 -80 c18 -14 25 -31 28 -67 5 -43 2 -54 -22 -82 -23 -27 -34 -32 -71
-32 -63 0 -104 40 -104 101 1 53 27 89 73 98 41 9 67 4 96 -18z"/>
</g>
</svg>
